M48
METRIC,LZ,000.000
;FILE_FORMAT=3:3
;TYPE=PLATED
;Layer: PTH_Through
;EasyEDA v6.5.34, 2023-08-16 01:38:41
;0b4bf82fb62e4253a9ec38605943c121,d082a57bed8c4960b86515869d5a82c3,10
;Gerber Generator version 0.2
;Holesize 1 = 0.306 mm
T01C0.306
;Holesize 2 = 0.701 mm
T02C0.701
;Holesize 3 = 0.800 mm
T03C0.800
;Holesize 4 = 0.966 mm
T04C0.966
;Holesize 5 = 1.000 mm
T05C1.000
;Holesize 6 = 1.016 mm
T06C1.016
;Holesize 7 = 3.000 mm
T07C3.000
%
G05
G90
T01
X026762Y018636
X032630Y018627
T02
X041910Y004572
X041910Y005842
X041910Y007112
X041910Y008382
X041910Y009652
X010541Y026035
X009271Y026035
X008001Y026035
T03
X015662Y032611
X020762Y023777
X020158Y032611
X025258Y023777
X024653Y032611
X029753Y023777
X011166Y032611
X016266Y023777
X029149Y032611
X034249Y023777
X033645Y032611
X038745Y023777
T04
X003937Y007871G85X003937Y007877
X003937Y005331G85X003937Y005337
T05
X040767Y013176
X040767Y020796
X027808Y013269
X030348Y013269
X032888Y013269
X035428Y013269
X035428Y020889
X030348Y020889
X027808Y020889
X032888Y020889
X021717Y019486
X021717Y014486
T06
X016096Y013176
X016096Y015716
X016096Y018256
X016096Y020796
T07
X040640Y029591
X004699Y029591
M30
