M48
METRIC,LZ,000.000
;FILE_FORMAT=3:3
;TYPE=PLATED
;Layer: PTH_Through
;EasyEDA v6.5.34, 2023-08-01 20:19:08
;4711a0bf1bec48da934da15f769306c7,d082a57bed8c4960b86515869d5a82c3,10
;Gerber Generator version 0.2
;Holesize 1 = 0.701 mm
T01C0.701
;Holesize 2 = 0.800 mm
T02C0.800
;Holesize 3 = 1.000 mm
T03C1.000
;Holesize 4 = 1.016 mm
T04C1.016
;Holesize 5 = 3.000 mm
T05C3.000
%
G05
G90
T01
X018034Y030353
X016764Y030353
X015494Y030353
X041148Y004572
X041148Y005842
X041148Y007112
X041148Y008382
X041148Y009652
T02
X002355Y006477
X004757Y006477
X024491Y030226
X034691Y030226
X024618Y024892
X034818Y024892
X010648Y024892
X020848Y024892
T03
X024892Y019518
X024892Y014518
X031496Y013462
X034036Y013462
X036576Y013462
X039116Y013462
X039116Y021082
X034036Y021082
X031496Y021082
X036576Y021082
T04
X018000Y013190
X018000Y015730
X018000Y018270
X018000Y020810
T05
X040640Y029591
X004699Y029591
M30
