G04 Layer: BottomLayer*
G04 EasyEDA v6.5.34, 2023-08-16 01:38:41*
G04 0b4bf82fb62e4253a9ec38605943c121,d082a57bed8c4960b86515869d5a82c3,10*
G04 Gerber Generator version 0.2*
G04 Scale: 100 percent, Rotated: No, Reflected: No *
G04 Dimensions in millimeters *
G04 leading zeros omitted , absolute positions ,4 integer and 5 decimal *
%FSLAX45Y45*%
%MOMM*%

%ADD10C,0.2032*%
%ADD11C,0.5000*%
%ADD12C,0.7500*%
%ADD13C,1.6510*%
%ADD14C,1.4000*%
%ADD15C,1.6000*%
%ADD16R,1.8796X1.8796*%
%ADD17C,1.8796*%
%ADD18C,1.8000*%
%ADD19C,1.9050*%
%ADD20R,1.5240X1.0000*%
%ADD21O,1.524X0.9999979999999999*%
%ADD22O,0.8999982X1.5999968*%
%ADD23R,0.9000X1.6000*%
%ADD24C,5.5000*%
%ADD25C,5.0000*%
%ADD26C,0.6100*%

%LPD*%
D10*
X3913377Y177037D02*
G01*
X3949700Y81534D01*
X3913377Y177037D02*
G01*
X3877056Y81534D01*
X3935984Y113537D02*
G01*
X3890518Y113537D01*
X3847084Y177037D02*
G01*
X3847084Y81534D01*
X3847084Y131571D02*
G01*
X3837940Y140715D01*
X3828795Y145287D01*
X3815079Y145287D01*
X3806190Y140715D01*
X3797045Y131571D01*
X3792474Y118110D01*
X3792474Y108965D01*
X3797045Y95250D01*
X3806190Y86105D01*
X3815079Y81534D01*
X3828795Y81534D01*
X3837940Y86105D01*
X3847084Y95250D01*
X3762502Y145287D02*
G01*
X3762502Y81534D01*
X3762502Y118110D02*
G01*
X3757929Y131571D01*
X3748786Y140715D01*
X3739641Y145287D01*
X3726179Y145287D01*
X3641597Y145287D02*
G01*
X3641597Y81534D01*
X3641597Y131571D02*
G01*
X3650488Y140715D01*
X3659631Y145287D01*
X3673347Y145287D01*
X3682491Y140715D01*
X3691636Y131571D01*
X3695954Y118110D01*
X3695954Y108965D01*
X3691636Y95250D01*
X3682491Y86105D01*
X3673347Y81534D01*
X3659631Y81534D01*
X3650488Y86105D01*
X3641597Y95250D01*
X3611625Y177037D02*
G01*
X3611625Y81534D01*
X3611625Y81534D02*
G01*
X3557015Y81534D01*
X3504184Y145287D02*
G01*
X3513327Y140715D01*
X3522472Y131571D01*
X3527043Y118110D01*
X3527043Y108965D01*
X3522472Y95250D01*
X3513327Y86105D01*
X3504184Y81534D01*
X3490722Y81534D01*
X3481577Y86105D01*
X3472434Y95250D01*
X3467861Y108965D01*
X3467861Y118110D01*
X3472434Y131571D01*
X3481577Y140715D01*
X3490722Y145287D01*
X3504184Y145287D01*
X3433318Y145287D02*
G01*
X3406140Y81534D01*
X3378708Y145287D02*
G01*
X3406140Y81534D01*
X3415029Y63500D01*
X3424174Y54355D01*
X3433318Y49784D01*
X3437890Y49784D01*
X3348736Y177037D02*
G01*
X3348736Y81534D01*
X3348736Y177037D02*
G01*
X3312413Y81534D01*
X3276091Y177037D02*
G01*
X3312413Y81534D01*
X3276091Y177037D02*
G01*
X3276091Y81534D01*
X3191509Y145287D02*
G01*
X3191509Y81534D01*
X3191509Y131571D02*
G01*
X3200654Y140715D01*
X3209797Y145287D01*
X3223259Y145287D01*
X3232404Y140715D01*
X3241547Y131571D01*
X3246120Y118110D01*
X3246120Y108965D01*
X3241547Y95250D01*
X3232404Y86105D01*
X3223259Y81534D01*
X3209797Y81534D01*
X3200654Y86105D01*
X3191509Y95250D01*
D11*
X3288766Y1326870D02*
G01*
X3024352Y1591284D01*
X2713126Y1591284D01*
X2224176Y2080234D01*
X2187676Y2080234D01*
X1926615Y2341295D01*
X1926615Y2900654D01*
X1566189Y3261080D01*
D12*
X4191000Y965200D02*
G01*
X4076700Y1079500D01*
X4076700Y1317599D01*
X1054100Y2603500D02*
G01*
X1578000Y2079599D01*
X1609597Y2079599D01*
X1609597Y2079599D02*
G01*
X1609597Y1825599D01*
X3263036Y1862709D02*
G01*
X3531590Y1862709D01*
X4076700Y1317599D01*
D11*
X3034766Y2088870D02*
G01*
X3097911Y2152014D01*
X3097911Y3078098D01*
X2914929Y3261080D01*
X4191000Y457200D02*
G01*
X3435883Y457200D01*
X1851431Y2041652D01*
X1851431Y2526258D01*
X1116609Y3261080D01*
X3288766Y2088870D02*
G01*
X3147822Y1947926D01*
X2715844Y1947926D01*
X2629712Y2034057D01*
X2629712Y2149932D01*
X2648077Y2168296D01*
X2648077Y3078353D01*
X2465349Y3261080D01*
X2076195Y2377719D02*
G01*
X2076195Y2339619D01*
X2640761Y1775053D01*
X3297123Y1775053D01*
X3704920Y1367256D01*
X3704920Y1147673D01*
X4141393Y711200D01*
X4191000Y711200D01*
X2015769Y3261080D02*
G01*
X2015769Y2438145D01*
X2076195Y2377719D01*
D12*
X4191000Y838200D02*
G01*
X4266438Y838200D01*
X4331843Y903604D01*
X4331843Y1523161D01*
X3874515Y1980488D01*
X3874515Y2377719D01*
X2676169Y1863597D02*
G01*
X2525775Y2013991D01*
X2525775Y2377719D01*
D13*
G01*
X393700Y787397D03*
G01*
X393700Y533397D03*
D14*
G01*
X1566176Y3261078D03*
G01*
X2076183Y2377721D03*
G01*
X2015756Y3261078D03*
G01*
X2525763Y2377721D03*
G01*
X2465336Y3261078D03*
G01*
X2975343Y2377721D03*
D15*
G01*
X4076700Y1317594D03*
G01*
X4076700Y2079594D03*
D14*
G01*
X1116596Y3261078D03*
G01*
X1626603Y2377721D03*
G01*
X2914916Y3261078D03*
G01*
X3424923Y2377721D03*
G01*
X3364496Y3261078D03*
G01*
X3874503Y2377721D03*
D16*
G01*
X1609595Y1317597D03*
D17*
G01*
X1609595Y1571597D03*
G01*
X1609595Y1825597D03*
G01*
X1609595Y2079597D03*
D18*
G01*
X2780761Y1326880D03*
G01*
X3034761Y1326880D03*
G01*
X3288761Y1326880D03*
G01*
X3542761Y1326880D03*
D19*
G01*
X3542761Y2088880D03*
D18*
G01*
X3034761Y2088880D03*
G01*
X2780761Y2088880D03*
D19*
G01*
X3288761Y2088880D03*
D20*
G01*
X4190992Y457197D03*
D21*
G01*
X4190992Y584197D03*
G01*
X4190992Y711197D03*
G01*
X4190992Y838197D03*
G01*
X4190992Y965197D03*
D22*
G01*
X1054100Y2603500D03*
G01*
X927100Y2603500D03*
D23*
G01*
X800100Y2603500D03*
D15*
G01*
X2171700Y1948581D03*
G01*
X2171700Y1448582D03*
D24*
G01*
X4064000Y2959100D03*
D25*
G01*
X469900Y2959100D03*
D26*
G01*
X2676169Y1863597D03*
G01*
X3263036Y1862709D03*
M02*
