G04 Layer: BottomSolderMaskLayer*
G04 EasyEDA v6.5.34, 2023-08-16 01:38:41*
G04 0b4bf82fb62e4253a9ec38605943c121,d082a57bed8c4960b86515869d5a82c3,10*
G04 Gerber Generator version 0.2*
G04 Scale: 100 percent, Rotated: No, Reflected: No *
G04 Dimensions in millimeters *
G04 leading zeros omitted , absolute positions ,4 integer and 5 decimal *
%FSLAX45Y45*%
%MOMM*%

%AMMACRO1*1,1,$1,$2,$3*1,1,$1,$4,$5*1,1,$1,0-$2,0-$3*1,1,$1,0-$4,0-$5*20,1,$1,$2,$3,$4,$5,0*20,1,$1,$4,$5,0-$2,0-$3,0*20,1,$1,0-$2,0-$3,0-$4,0-$5,0*20,1,$1,0-$4,0-$5,$2,$3,0*4,1,4,$2,$3,$4,$5,0-$2,0-$3,0-$4,0-$5,$2,$3,0*%
%ADD10C,1.7526*%
%ADD11C,1.5016*%
%ADD12C,1.7016*%
%ADD13MACRO1,0.1016X0.9398X-0.9398X-0.9398X-0.9398*%
%ADD14C,1.9812*%
%ADD15C,1.9016*%
%ADD16C,2.0066*%
%ADD17MACRO1,0.1X0.762X-0.5X-0.762X-0.5*%
%ADD18O,1.6239998000000002X1.0999978000000001*%
%ADD19O,1.0015981999999999X1.7015968*%
%ADD20MACRO1,0.1016X-0.45X0.8X0.45X0.8*%
%ADD21C,5.6016*%
%ADD22C,5.1016*%

%LPD*%
D10*
G01*
X393700Y787397D03*
G01*
X393700Y533397D03*
D11*
G01*
X1566176Y3261078D03*
G01*
X2076183Y2377721D03*
G01*
X2015756Y3261078D03*
G01*
X2525763Y2377721D03*
G01*
X2465336Y3261078D03*
G01*
X2975343Y2377721D03*
D12*
G01*
X4076700Y1317594D03*
G01*
X4076700Y2079594D03*
D11*
G01*
X1116596Y3261078D03*
G01*
X1626603Y2377721D03*
G01*
X2914916Y3261078D03*
G01*
X3424923Y2377721D03*
G01*
X3364496Y3261078D03*
G01*
X3874503Y2377721D03*
D13*
G01*
X1609595Y1317597D03*
D14*
G01*
X1609595Y1571597D03*
G01*
X1609595Y1825597D03*
G01*
X1609595Y2079597D03*
D15*
G01*
X2780761Y1326880D03*
G01*
X3034761Y1326880D03*
G01*
X3288761Y1326880D03*
G01*
X3542761Y1326880D03*
D16*
G01*
X3542761Y2088880D03*
D15*
G01*
X3034761Y2088880D03*
G01*
X2780761Y2088880D03*
D16*
G01*
X3288761Y2088880D03*
D17*
G01*
X4190992Y457197D03*
D18*
G01*
X4190992Y584197D03*
G01*
X4190992Y711197D03*
G01*
X4190992Y838197D03*
G01*
X4190992Y965197D03*
D19*
G01*
X1054100Y2603500D03*
G01*
X927100Y2603500D03*
D20*
G01*
X800101Y2603500D03*
D12*
G01*
X2171700Y1948581D03*
G01*
X2171700Y1448582D03*
D21*
G01*
X4064000Y2959100D03*
D22*
G01*
X469900Y2959100D03*
M02*
