G04 Layer: BottomSilkscreenLayer*
G04 EasyEDA v6.5.34, 2023-08-01 20:19:08*
G04 4711a0bf1bec48da934da15f769306c7,d082a57bed8c4960b86515869d5a82c3,10*
G04 Gerber Generator version 0.2*
G04 Scale: 100 percent, Rotated: No, Reflected: No *
G04 Dimensions in millimeters *
G04 leading zeros omitted , absolute positions ,4 integer and 5 decimal *
%FSLAX45Y45*%
%MOMM*%

%ADD10C,0.0001*%

%LPD*%
G36*
X2789123Y1118412D02*
G01*
X2788462Y1117295D01*
X2772867Y1116431D01*
X2752039Y1113688D01*
X2729738Y1109726D01*
X2707386Y1104544D01*
X2692704Y1100531D01*
X2683408Y1097686D01*
X2680716Y1096619D01*
X2675382Y1094994D01*
X2658719Y1088796D01*
X2648407Y1084427D01*
X2647645Y1084427D01*
X2632049Y1077518D01*
X2605125Y1063853D01*
X2599740Y1060450D01*
X2599080Y1060450D01*
X2591765Y1055776D01*
X2591054Y1055776D01*
X2574086Y1044905D01*
X2556052Y1032205D01*
X2544064Y1022807D01*
X2532735Y1013510D01*
X2521407Y1003604D01*
X2496921Y979424D01*
X2483916Y964793D01*
X2471369Y949452D01*
X2467406Y944118D01*
X2466644Y943457D01*
X2449068Y918362D01*
X2449068Y917702D01*
X2445918Y913434D01*
X2431034Y888085D01*
X2416403Y858570D01*
X2416403Y857808D01*
X2410409Y844448D01*
X2410409Y843635D01*
X2408529Y839419D01*
X2404211Y828090D01*
X2396388Y804367D01*
X2390343Y781456D01*
X2385568Y758748D01*
X2381859Y734110D01*
X2380437Y722122D01*
X2378811Y704088D01*
X2378788Y692861D01*
X2450236Y692861D01*
X2451150Y695756D01*
X2712059Y695452D01*
X2712415Y662432D01*
X2485390Y662127D01*
X2484932Y657453D01*
X2486456Y642112D01*
X2488438Y627430D01*
X2489708Y620115D01*
X2494991Y595426D01*
X2499258Y580796D01*
X2505608Y562102D01*
X2513838Y542442D01*
X2521712Y526084D01*
X2526944Y516483D01*
X2534259Y504037D01*
X2545006Y488086D01*
X2713380Y488086D01*
X2713786Y521106D01*
X2800045Y521462D01*
X2800400Y869950D01*
X2801874Y871778D01*
X2834182Y871778D01*
X2835046Y870864D01*
X2835046Y814832D01*
X2905709Y814832D01*
X2905709Y824331D01*
X2907131Y831443D01*
X2909163Y838098D01*
X2912465Y845261D01*
X2917596Y852830D01*
X2925368Y860602D01*
X2934055Y866190D01*
X2942742Y869594D01*
X2947365Y871169D01*
X2964078Y871677D01*
X2968040Y871118D01*
X2973374Y869594D01*
X2979369Y867511D01*
X2989376Y861568D01*
X2996488Y855421D01*
X3002178Y847902D01*
X3007004Y838098D01*
X3007969Y835456D01*
X3009696Y829462D01*
X3010509Y816102D01*
X3008274Y804113D01*
X3004718Y795477D01*
X2998571Y786130D01*
X2991408Y778865D01*
X2983382Y773684D01*
X2975406Y770026D01*
X2970072Y768553D01*
X2962960Y767130D01*
X2953410Y767130D01*
X2944063Y769061D01*
X2940050Y770280D01*
X2933395Y773328D01*
X2926080Y777951D01*
X2917596Y786130D01*
X2913938Y791464D01*
X2910636Y797458D01*
X2907233Y806754D01*
X2905709Y814832D01*
X2835046Y814832D01*
X2835046Y487121D01*
X2713786Y487121D01*
X2713380Y488086D01*
X2545006Y488086D01*
X2547213Y484784D01*
X2557322Y471424D01*
X2566619Y460248D01*
X2574645Y451459D01*
X2590038Y436016D01*
X2602738Y424789D01*
X2615387Y414629D01*
X2630728Y403504D01*
X2646781Y393242D01*
X2660040Y385775D01*
X2681376Y375208D01*
X2702712Y366522D01*
X2714701Y362305D01*
X2732074Y357276D01*
X2747365Y353771D01*
X2751480Y352450D01*
X2754579Y352450D01*
X2759405Y351180D01*
X2772714Y349148D01*
X2783382Y347827D01*
X2802737Y346303D01*
X2844038Y347065D01*
X2868066Y349758D01*
X2871368Y350570D01*
X2882392Y352399D01*
X2897733Y355803D01*
X2911703Y359562D01*
X2923082Y363118D01*
X2934411Y367080D01*
X2955036Y375564D01*
X2978708Y387197D01*
X2980080Y388315D01*
X2991256Y394563D01*
X2995523Y397764D01*
X2996488Y397764D01*
X3016707Y411988D01*
X3028746Y421335D01*
X3042056Y432714D01*
X3064103Y454761D01*
X3078073Y470865D01*
X3084068Y478790D01*
X3084830Y479450D01*
X3095294Y494080D01*
X3105708Y510489D01*
X3105708Y511149D01*
X3108807Y516128D01*
X3113532Y524764D01*
X3121050Y539597D01*
X3121050Y540359D01*
X3126130Y551434D01*
X3130956Y563422D01*
X3137865Y584098D01*
X3141167Y596087D01*
X3145790Y616762D01*
X3148380Y633425D01*
X3151124Y658114D01*
X3151073Y701446D01*
X3148380Y725424D01*
X3145840Y741426D01*
X3143046Y754786D01*
X3137916Y774750D01*
X3130956Y795426D01*
X3125520Y808786D01*
X3121050Y818540D01*
X3121050Y819251D01*
X3111652Y837844D01*
X3109112Y842365D01*
X3105708Y847750D01*
X3105708Y848512D01*
X3096158Y863447D01*
X3086811Y876757D01*
X3075432Y891438D01*
X3074670Y892098D01*
X3065576Y902766D01*
X3044748Y923950D01*
X3030372Y936447D01*
X3017570Y946607D01*
X2999028Y959459D01*
X2994050Y962660D01*
X2976067Y973226D01*
X2952699Y984554D01*
X2943758Y988415D01*
X2942945Y988415D01*
X2936697Y991108D01*
X2923387Y995832D01*
X2910535Y999845D01*
X2890062Y1004976D01*
X2872079Y1008380D01*
X2858058Y1010412D01*
X2846171Y1011834D01*
X2812745Y1013053D01*
X2801112Y1012240D01*
X2800350Y1015441D01*
X2800705Y1046124D01*
X2843377Y1046276D01*
X2874721Y1042517D01*
X2892704Y1039164D01*
X2904744Y1036523D01*
X2924149Y1031189D01*
X2944723Y1024382D01*
X2960725Y1017930D01*
X2974746Y1011631D01*
X2990697Y1003553D01*
X3006598Y994460D01*
X3007004Y994460D01*
X3028746Y980236D01*
X3029407Y979373D01*
X3034080Y976172D01*
X3051403Y962863D01*
X3067405Y948944D01*
X3089402Y926795D01*
X3102051Y912012D01*
X3111398Y900125D01*
X3126079Y878992D01*
X3130651Y872083D01*
X3138576Y858113D01*
X3140811Y854760D01*
X3151632Y832764D01*
X3155746Y823671D01*
X3155746Y823112D01*
X3162401Y807161D01*
X3166516Y794766D01*
X3167583Y792124D01*
X3172561Y774750D01*
X3173679Y771448D01*
X3177032Y756767D01*
X3181045Y734618D01*
X3183686Y713435D01*
X3185058Y698042D01*
X3185058Y661568D01*
X3183686Y646125D01*
X3181705Y628091D01*
X3180283Y618794D01*
X3179064Y613968D01*
X3179064Y610717D01*
X3177235Y603453D01*
X3174492Y590753D01*
X3171139Y578104D01*
X3162808Y552094D01*
X3161842Y550113D01*
X3158236Y540766D01*
X3155035Y533755D01*
X3155035Y533146D01*
X3151581Y525424D01*
X3142792Y507441D01*
X3136392Y496265D01*
X3136392Y495808D01*
X3127044Y481025D01*
X3127044Y480415D01*
X3112922Y460197D01*
X3104083Y448919D01*
X3088487Y430784D01*
X3072079Y414121D01*
X3063392Y406095D01*
X3045917Y391464D01*
X3035604Y383489D01*
X3028746Y378510D01*
X3004058Y362712D01*
X2993390Y356971D01*
X2991967Y355854D01*
X2976067Y347929D01*
X2961284Y341172D01*
X2951378Y337210D01*
X2940608Y333197D01*
X2923387Y327710D01*
X2907385Y323240D01*
X2888742Y319024D01*
X2863392Y315163D01*
X2852064Y313791D01*
X2838043Y312775D01*
X2797403Y312775D01*
X2783382Y313791D01*
X2758033Y317144D01*
X2740710Y320395D01*
X2722727Y324764D01*
X2718714Y325932D01*
X2714040Y326948D01*
X2689707Y335127D01*
X2676702Y340309D01*
X2670352Y343154D01*
X2664714Y345338D01*
X2640736Y357581D01*
X2630271Y363778D01*
X2629763Y363778D01*
X2613355Y374243D01*
X2596743Y386029D01*
X2596083Y386842D01*
X2583027Y396951D01*
X2574747Y404114D01*
X2565400Y412750D01*
X2549956Y428091D01*
X2536850Y442772D01*
X2524302Y458470D01*
X2513380Y473913D01*
X2501646Y492099D01*
X2500782Y494080D01*
X2493314Y506780D01*
X2483916Y526084D01*
X2478328Y538530D01*
X2471674Y555904D01*
X2466594Y571449D01*
X2462834Y584758D01*
X2460447Y594106D01*
X2457145Y608787D01*
X2455621Y618794D01*
X2454452Y624789D01*
X2452471Y641451D01*
X2451100Y656132D01*
X2450236Y692861D01*
X2378788Y692861D01*
X2378760Y655421D01*
X2380437Y636117D01*
X2383790Y610768D01*
X2385212Y602081D01*
X2389682Y580085D01*
X2394356Y561797D01*
X2397861Y549452D01*
X2399080Y547116D01*
X2399080Y545592D01*
X2407716Y521462D01*
X2412492Y509422D01*
X2421890Y488746D01*
X2428189Y476097D01*
X2433269Y466750D01*
X2443276Y449427D01*
X2458364Y426770D01*
X2464663Y418084D01*
X2475992Y403453D01*
X2486050Y391464D01*
X2499360Y376783D01*
X2515412Y360781D01*
X2529382Y348030D01*
X2550058Y331266D01*
X2558745Y324713D01*
X2572156Y315214D01*
X2594406Y301091D01*
X2595067Y301091D01*
X2600655Y297586D01*
X2607411Y293776D01*
X2634742Y280060D01*
X2655366Y271221D01*
X2668727Y266344D01*
X2671368Y265176D01*
X2685389Y260604D01*
X2701391Y255930D01*
X2717749Y251764D01*
X2737053Y247751D01*
X2752090Y245110D01*
X2760421Y244246D01*
X2761132Y243128D01*
X2874314Y243128D01*
X2875127Y244449D01*
X2879598Y244449D01*
X2899410Y247904D01*
X2918053Y251764D01*
X2936036Y256336D01*
X2950057Y260502D01*
X2968040Y266496D01*
X2983077Y272440D01*
X3006699Y282702D01*
X3029915Y294538D01*
X3035046Y297789D01*
X3035808Y297789D01*
X3043072Y302463D01*
X3043631Y302463D01*
X3056737Y310642D01*
X3070707Y320090D01*
X3071368Y320802D01*
X3083407Y329387D01*
X3084068Y330149D01*
X3088182Y333044D01*
X3105302Y347167D01*
X3116072Y356717D01*
X3140811Y381457D01*
X3151632Y393446D01*
X3154680Y397459D01*
X3155442Y398119D01*
X3170834Y417423D01*
X3183534Y435457D01*
X3196386Y455828D01*
X3196386Y456590D01*
X3198876Y460095D01*
X3205124Y471424D01*
X3219500Y500786D01*
X3225393Y514756D01*
X3231743Y531215D01*
X3238195Y550773D01*
X3241598Y562102D01*
X3247694Y587451D01*
X3250895Y604113D01*
X3253740Y622757D01*
X3255162Y634796D01*
X3256635Y650087D01*
X3256584Y708761D01*
X3255162Y724103D01*
X3250488Y757428D01*
X3245764Y780084D01*
X3239668Y803452D01*
X3235452Y816457D01*
X3229203Y834085D01*
X3224530Y846124D01*
X3216757Y864108D01*
X3203956Y889457D01*
X3199536Y897432D01*
X3189528Y914095D01*
X3183737Y922477D01*
X3183737Y923036D01*
X3174136Y936752D01*
X3173323Y937463D01*
X3166364Y947115D01*
X3153918Y962406D01*
X3140100Y978103D01*
X3116072Y1002182D01*
X3096056Y1019454D01*
X3084068Y1028801D01*
X3071368Y1038250D01*
X3054197Y1049782D01*
X3053842Y1049782D01*
X3039414Y1058926D01*
X3020060Y1069492D01*
X3004718Y1076960D01*
X2989986Y1083614D01*
X2971393Y1090980D01*
X2961386Y1094486D01*
X2938373Y1101852D01*
X2918714Y1106932D01*
X2902712Y1110386D01*
X2882747Y1113739D01*
X2861411Y1116533D01*
X2847695Y1117295D01*
X2846984Y1118412D01*
G37*
G36*
X1470609Y979169D02*
G01*
X1445412Y977747D01*
X1424076Y975664D01*
X1412036Y973836D01*
X1400048Y971753D01*
X1384706Y968248D01*
X1372717Y964895D01*
X1357376Y959916D01*
X1348740Y956614D01*
X1340053Y952804D01*
X1323390Y944473D01*
X1316329Y940460D01*
X1308709Y935583D01*
X1297381Y927506D01*
X1285392Y917498D01*
X1271371Y903427D01*
X1262583Y892759D01*
X1257604Y885799D01*
X1262075Y881430D01*
X1295857Y850544D01*
X1305458Y841451D01*
X1339392Y810463D01*
X1348943Y821486D01*
X1359408Y832205D01*
X1370736Y841552D01*
X1382725Y849630D01*
X1394053Y855471D01*
X1404416Y859790D01*
X1410055Y861669D01*
X1421384Y864971D01*
X1431391Y867054D01*
X1451406Y870102D01*
X1496060Y870102D01*
X1509369Y868375D01*
X1520748Y866394D01*
X1526743Y865022D01*
X1537055Y862126D01*
X1544066Y859840D01*
X1552702Y856335D01*
X1561388Y852169D01*
X1578711Y840892D01*
X1595424Y824128D01*
X1606245Y807974D01*
X1613001Y794105D01*
X1617218Y783437D01*
X1619707Y775462D01*
X1624228Y758088D01*
X1627022Y742746D01*
X1628495Y731418D01*
X1629867Y717448D01*
X1630527Y662127D01*
X1628952Y642772D01*
X1627022Y626110D01*
X1624228Y610768D01*
X1619199Y591413D01*
X1614525Y578510D01*
X1606905Y562864D01*
X1600860Y553466D01*
X1593443Y544118D01*
X1584706Y535432D01*
X1577949Y529793D01*
X1565554Y521563D01*
X1552448Y515112D01*
X1550670Y515112D01*
X1549400Y513943D01*
X1540713Y510946D01*
X1526743Y507288D01*
X1512062Y504494D01*
X1494078Y502310D01*
X1452727Y502310D01*
X1433372Y504443D01*
X1419047Y506526D01*
X1399387Y510489D01*
X1384706Y514299D01*
X1377391Y516839D01*
X1377391Y616762D01*
X1484376Y617118D01*
X1484376Y723087D01*
X1257046Y723087D01*
X1257046Y445262D01*
X1265377Y439877D01*
X1271371Y436422D01*
X1294180Y425145D01*
X1313383Y417677D01*
X1334719Y410616D01*
X1352753Y405841D01*
X1366723Y402590D01*
X1380083Y399846D01*
X1409395Y395122D01*
X1427378Y393192D01*
X1444701Y391769D01*
X1478737Y390448D01*
X1519377Y392480D01*
X1532077Y393700D01*
X1546047Y395732D01*
X1561388Y398373D01*
X1574038Y401167D01*
X1591411Y405993D01*
X1602943Y409803D01*
X1615389Y414578D01*
X1620062Y416661D01*
X1637385Y425094D01*
X1644040Y428904D01*
X1655114Y435813D01*
X1662074Y440740D01*
X1674723Y450596D01*
X1697380Y473456D01*
X1708912Y488746D01*
X1716532Y500532D01*
X1724101Y514096D01*
X1733702Y534568D01*
X1733702Y535787D01*
X1734972Y538124D01*
X1738985Y548944D01*
X1745640Y570788D01*
X1747774Y580085D01*
X1749043Y584758D01*
X1751736Y598779D01*
X1753666Y610108D01*
X1756460Y632104D01*
X1757781Y648766D01*
X1759000Y683463D01*
X1758391Y711454D01*
X1757019Y730758D01*
X1754936Y749452D01*
X1751838Y769416D01*
X1747774Y788111D01*
X1745691Y796798D01*
X1742897Y806094D01*
X1736242Y826109D01*
X1730908Y838758D01*
X1721967Y856792D01*
X1717497Y864768D01*
X1707489Y880008D01*
X1699056Y891133D01*
X1689404Y902106D01*
X1678076Y913485D01*
X1668729Y921512D01*
X1659382Y928878D01*
X1644040Y938885D01*
X1636064Y943660D01*
X1621383Y950976D01*
X1610969Y955751D01*
X1609344Y955751D01*
X1608074Y956818D01*
X1602740Y958596D01*
X1598726Y960272D01*
X1583385Y965098D01*
X1572056Y968298D01*
X1548384Y973175D01*
X1525371Y976376D01*
X1509369Y977798D01*
X1492046Y978763D01*
G37*
G36*
X2179472Y970432D02*
G01*
X2048713Y970127D01*
X2048052Y510793D01*
X1775409Y510082D01*
X1775053Y400202D01*
X1776730Y399135D01*
X2178304Y399084D01*
X2180386Y399897D01*
X2180386Y969568D01*
G37*
M02*
