G04 Layer: TopLayer*
G04 EasyEDA v6.5.34, 2023-08-16 01:38:41*
G04 0b4bf82fb62e4253a9ec38605943c121,d082a57bed8c4960b86515869d5a82c3,10*
G04 Gerber Generator version 0.2*
G04 Scale: 100 percent, Rotated: No, Reflected: No *
G04 Dimensions in millimeters *
G04 leading zeros omitted , absolute positions ,4 integer and 5 decimal *
%FSLAX45Y45*%
%MOMM*%

%ADD10C,0.5000*%
%ADD11C,0.7500*%
%ADD12C,1.6510*%
%ADD13C,1.4000*%
%ADD14C,1.6000*%
%ADD15R,1.8796X1.8796*%
%ADD16C,1.8796*%
%ADD17C,1.8000*%
%ADD18C,1.9050*%
%ADD19R,1.5240X1.0000*%
%ADD20O,1.524X0.9999979999999999*%
%ADD21O,0.8999982X1.5999968*%
%ADD22R,0.9000X1.6000*%
%ADD23C,5.5000*%
%ADD24C,5.0000*%
%ADD25C,0.6100*%

%LPD*%
D10*
X927100Y2603500D02*
G01*
X927100Y2559989D01*
X1109370Y2377719D01*
X1626615Y2377719D01*
X393700Y787400D02*
G01*
X1790420Y787400D01*
X2778074Y1775053D01*
X3299358Y1775053D01*
X3542766Y2018461D01*
X3542766Y2088870D01*
X4191000Y584200D02*
G01*
X3777437Y584200D01*
X3034766Y1326870D01*
X3364509Y3261080D02*
G01*
X3244316Y3140887D01*
X1123924Y3140887D01*
X255346Y2272309D01*
X255346Y671753D01*
X393700Y533400D01*
D11*
X2171700Y1948586D02*
G01*
X1732584Y1948586D01*
X1609597Y1825599D01*
X2780766Y2088870D02*
G01*
X3006928Y1862709D01*
X3263036Y1862709D01*
X2780766Y2088870D02*
G01*
X2311984Y2088870D01*
X2171700Y1948586D01*
D10*
X800100Y2473426D02*
G01*
X1026972Y2246553D01*
X2877083Y2246553D01*
X3034766Y2088870D01*
X800100Y2603500D02*
G01*
X800100Y2473426D01*
X3288766Y2088870D02*
G01*
X3436340Y2236444D01*
X3919854Y2236444D01*
X4076700Y2079599D01*
D11*
X4191000Y838200D02*
G01*
X4031437Y838200D01*
X3542766Y1326870D01*
X2171700Y1448587D02*
G01*
X2261158Y1448587D01*
X2676169Y1863597D01*
X3874515Y2377719D02*
G01*
X3424936Y2377719D01*
X3424936Y2377719D02*
G01*
X2975356Y2377719D01*
X2975356Y2377719D02*
G01*
X2525775Y2377719D01*
X1609597Y1571599D02*
G01*
X2048687Y1571599D01*
X2171700Y1448587D01*
X1609597Y1317599D02*
G01*
X1609597Y1571599D01*
D12*
G01*
X393700Y787397D03*
G01*
X393700Y533397D03*
D13*
G01*
X1566176Y3261078D03*
G01*
X2076183Y2377721D03*
G01*
X2015756Y3261078D03*
G01*
X2525763Y2377721D03*
G01*
X2465336Y3261078D03*
G01*
X2975343Y2377721D03*
D14*
G01*
X4076700Y1317594D03*
G01*
X4076700Y2079594D03*
D13*
G01*
X1116596Y3261078D03*
G01*
X1626603Y2377721D03*
G01*
X2914916Y3261078D03*
G01*
X3424923Y2377721D03*
G01*
X3364496Y3261078D03*
G01*
X3874503Y2377721D03*
D15*
G01*
X1609595Y1317597D03*
D16*
G01*
X1609595Y1571597D03*
G01*
X1609595Y1825597D03*
G01*
X1609595Y2079597D03*
D17*
G01*
X2780761Y1326880D03*
G01*
X3034761Y1326880D03*
G01*
X3288761Y1326880D03*
G01*
X3542761Y1326880D03*
D18*
G01*
X3542761Y2088880D03*
D17*
G01*
X3034761Y2088880D03*
G01*
X2780761Y2088880D03*
D18*
G01*
X3288761Y2088880D03*
D19*
G01*
X4190992Y457197D03*
D20*
G01*
X4190992Y584197D03*
G01*
X4190992Y711197D03*
G01*
X4190992Y838197D03*
G01*
X4190992Y965197D03*
D21*
G01*
X1054100Y2603500D03*
G01*
X927100Y2603500D03*
D22*
G01*
X800100Y2603500D03*
D14*
G01*
X2171700Y1948581D03*
G01*
X2171700Y1448582D03*
D23*
G01*
X4064000Y2959100D03*
D24*
G01*
X469900Y2959100D03*
D25*
G01*
X2676169Y1863597D03*
G01*
X3263036Y1862709D03*
M02*
